{
	"asset":{
		"generator":"Khronos glTF Blender I/O v4.0.44",
		"version":"2.0"
	},
	"scene":0,
	"scenes":[
		{
			"name":"Scene",
			"nodes":[
				0
			]
		}
	],
	"nodes":[
		{
			"mesh":0,
			"name":"Right_Hemisphere_transparent",
			"rotation":[
				0.7071068286895752,
				0,
				0,
				0.7071068286895752
			]
		}
	],
	"meshes":[
		{
			"name":"Right_Hemisphere_transparent",
			"primitives":[
				{
					"attributes":{
						"POSITION":0,
						"NORMAL":1
					},
					"indices":2
				}
			]
		}
	],
	"accessors":[
		{
			"bufferView":0,
			"componentType":5126,
			"count":511578,
			"max":[
				11.815197944641113,
				84.227294921875,
				11.748194694519043
			],
			"min":[
				-38.10839080810547,
				-40.63619613647461,
				-69.72916412353516
			],
			"type":"VEC3"
		},
		{
			"bufferView":1,
			"componentType":5126,
			"count":511578,
			"type":"VEC3"
		},
		{
			"bufferView":2,
			"componentType":5125,
			"count":760620,
			"type":"SCALAR"
		}
	],
	"bufferViews":[
		{
			"buffer":0,
			"byteLength":6138936,
			"byteOffset":0,
			"target":34962
		},
		{
			"buffer":0,
			"byteLength":6138936,
			"byteOffset":6138936,
			"target":34962
		},
		{
			"buffer":0,
			"byteLength":3042480,
			"byteOffset":12277872,
			"target":34963
		}
	],
	"buffers":[
		{
			"byteLength":15320352,
			"uri":"right_hemisphere_transparent.bin"
		}
	]
}
