{
	"asset":{
		"generator":"Khronos glTF Blender I/O v4.0.44",
		"version":"2.0"
	},
	"extensionsUsed":[
		"KHR_materials_specular",
		"KHR_materials_ior"
	],
	"scene":0,
	"scenes":[
		{
			"name":"Scene",
			"nodes":[
				0
			]
		}
	],
	"nodes":[
		{
			"mesh":0,
			"name":"neurons2",
			"rotation":[
				0.7071068286895752,
				0,
				0,
				0.7071068286895752
			],
			"scale":[
				5,
				5,
				5
			]
		}
	],
	"materials":[
		{
			"doubleSided":true,
			"extensions":{
				"KHR_materials_specular":{
					"specularColorFactor":[
						2.0,
						2.0,
						2.0
					]
				},
				"KHR_materials_ior":{
					"ior":1.4500000476837158
				}
			},
			"name":"material_0",
			"pbrMetallicRoughness":{
				"baseColorTexture":{
					"index":0
				},
				"metallicFactor":0
			}
		}
	],
	"meshes":[
		{
			"name":"neurons2",
			"primitives":[
				{
					"attributes":{
						"POSITION":0,
						"NORMAL":1,
						"TEXCOORD_0":2
					},
					"indices":3,
					"material":0
				}
			]
		}
	],
	"textures":[
		{
			"sampler":0,
			"source":0
		}
	],
	"images":[
		{
			"mimeType":"image/png",
			"name":"PD neurons mapsSkin_ZSphere9",
			"uri":"PD%20neurons%20mapsSkin_ZSphere9.png"
		}
	],
	"accessors":[
		{
			"bufferView":0,
			"componentType":5126,
			"count":546630,
			"max":[
				50.79642105102539,
				65.62996673583984,
				72.745361328125
			],
			"min":[
				11.009536743164062,
				4.140769958496094,
				34.25885009765625
			],
			"type":"VEC3"
		},
		{
			"bufferView":1,
			"componentType":5126,
			"count":546630,
			"type":"VEC3"
		},
		{
			"bufferView":2,
			"componentType":5126,
			"count":546630,
			"type":"VEC2"
		},
		{
			"bufferView":3,
			"componentType":5125,
			"count":1974738,
			"type":"SCALAR"
		}
	],
	"bufferViews":[
		{
			"buffer":0,
			"byteLength":6559560,
			"byteOffset":0,
			"target":34962
		},
		{
			"buffer":0,
			"byteLength":6559560,
			"byteOffset":6559560,
			"target":34962
		},
		{
			"buffer":0,
			"byteLength":4373040,
			"byteOffset":13119120,
			"target":34962
		},
		{
			"buffer":0,
			"byteLength":7898952,
			"byteOffset":17492160,
			"target":34963
		}
	],
	"samplers":[
		{
			"magFilter":9729,
			"minFilter":9987
		}
	],
	"buffers":[
		{
			"byteLength":25391112,
			"uri":"neuronsclean.bin"
		}
	]
}
