{
	"asset":{
		"generator":"Khronos glTF Blender I/O v4.0.44",
		"version":"2.0"
	},
	"extensionsUsed":[
		"KHR_materials_specular",
		"KHR_materials_ior"
	],
	"scene":0,
	"scenes":[
		{
			"name":"Scene",
			"nodes":[
				0,
				1,
				2,
				3
			]
		}
	],
	"nodes":[
		{
			"mesh":0,
			"name":"a_synuclein_copy",
			"rotation":[
				0.9366760849952698,
				0.13132072985172272,
				0.03906794637441635,
				0.32228323817253113
			],
			"scale":[
				4.999999523162842,
				5,
				5
			]
		},
		{
			"mesh":1,
			"name":"Cube.004",
			"rotation":[
				0.9366760849952698,
				0.13132072985172272,
				0.03906794637441635,
				0.32228323817253113
			],
			"scale":[
				4.999999523162842,
				5,
				5
			]
		},
		{
			"mesh":2,
			"name":"Lewy_body_objPM3D_Sphere3D2",
			"rotation":[
				0.9366760849952698,
				0.13132072985172272,
				0.03906794637441635,
				0.32228323817253113
			],
			"scale":[
				4.999999523162842,
				5,
				5
			]
		},
		{
			"mesh":3,
			"name":"Nucleus_objPM3D_Sphere3D1",
			"rotation":[
				0.9366760849952698,
				0.13132072985172272,
				0.03906794637441635,
				0.32228323817253113
			],
			"scale":[
				4.999999523162842,
				5,
				5
			]
		}
	],
	"materials":[
		{
			"doubleSided":true,
			"extensions":{
				"KHR_materials_specular":{
					"specularFactor":0
				},
				"KHR_materials_ior":{
					"ior":1.4500000476837158
				}
			},
			"name":"defaultMat",
			"pbrMetallicRoughness":{
				"metallicFactor":0
			}
		},
		{
			"doubleSided":true,
			"name":"Material.001",
			"pbrMetallicRoughness":{
				"baseColorFactor":[
					0.10798300057649612,
					0.016750000417232513,
					0.23177100718021393,
					1
				],
				"metallicFactor":0,
				"roughnessFactor":0.5
			}
		},
		{
			"doubleSided":true,
			"extensions":{
				"KHR_materials_specular":{
					"specularFactor":0
				},
				"KHR_materials_ior":{
					"ior":1.4500000476837158
				}
			},
			"name":"defaultMat.001",
			"pbrMetallicRoughness":{
				"metallicFactor":0
			}
		},
		{
			"alphaMode":"BLEND",
			"doubleSided":true,
			"extensions":{
				"KHR_materials_specular":{
					"specularFactor":0
				},
				"KHR_materials_ior":{
					"ior":1.4500000476837158
				}
			},
			"name":"defaultMat.003",
			"pbrMetallicRoughness":{
				"baseColorTexture":{
					"index":0
				},
				"metallicFactor":0
			}
		}
	],
	"meshes":[
		{
			"name":"a_synuclein_copy",
			"primitives":[
				{
					"attributes":{
						"POSITION":0,
						"NORMAL":1,
						"TEXCOORD_0":2
					},
					"indices":3,
					"material":0
				}
			]
		},
		{
			"name":"Cube.004",
			"primitives":[
				{
					"attributes":{
						"POSITION":4,
						"NORMAL":5,
						"TEXCOORD_0":6
					},
					"indices":7,
					"material":1
				}
			]
		},
		{
			"name":"Lewy_body_objPM3D_Sphere3D2",
			"primitives":[
				{
					"attributes":{
						"POSITION":8,
						"NORMAL":9,
						"TEXCOORD_0":10
					},
					"indices":11,
					"material":2
				}
			]
		},
		{
			"name":"Nucleus_objPM3D_Sphere3D1",
			"primitives":[
				{
					"attributes":{
						"POSITION":12,
						"NORMAL":13,
						"TEXCOORD_0":14
					},
					"indices":15,
					"material":3
				}
			]
		}
	],
	"textures":[
		{
			"sampler":0,
			"source":0
		}
	],
	"images":[
		{
			"mimeType":"image/png",
			"name":"nucleus map",
			"uri":"nucleus%20map.png"
		}
	],
	"accessors":[
		{
			"bufferView":0,
			"componentType":5126,
			"count":374238,
			"max":[
				7.87983512878418,
				6.040531158447266,
				-18.600690841674805
			],
			"min":[
				7.697854995727539,
				5.901203155517578,
				-19.014780044555664
			],
			"type":"VEC3"
		},
		{
			"bufferView":1,
			"componentType":5126,
			"count":374238,
			"type":"VEC3"
		},
		{
			"bufferView":2,
			"componentType":5126,
			"count":374238,
			"type":"VEC2"
		},
		{
			"bufferView":3,
			"componentType":5125,
			"count":569238,
			"type":"SCALAR"
		},
		{
			"bufferView":4,
			"componentType":5126,
			"count":97161,
			"max":[
				7.345798492431641,
				5.942848205566406,
				-18.429733276367188
			],
			"min":[
				7.119525909423828,
				5.582790374755859,
				-18.985004425048828
			],
			"type":"VEC3"
		},
		{
			"bufferView":5,
			"componentType":5126,
			"count":97161,
			"type":"VEC3"
		},
		{
			"bufferView":6,
			"componentType":5126,
			"count":97161,
			"type":"VEC2"
		},
		{
			"bufferView":7,
			"componentType":5125,
			"count":174600,
			"type":"SCALAR"
		},
		{
			"bufferView":8,
			"componentType":5126,
			"count":115760,
			"max":[
				6.605897903442383,
				6.247531890869141,
				-18.825576782226562
			],
			"min":[
				5.987524032592773,
				5.567840576171875,
				-19.452686309814453
			],
			"type":"VEC3"
		},
		{
			"bufferView":9,
			"componentType":5126,
			"count":115760,
			"type":"VEC3"
		},
		{
			"bufferView":10,
			"componentType":5126,
			"count":115760,
			"type":"VEC2"
		},
		{
			"bufferView":11,
			"componentType":5125,
			"count":195072,
			"type":"SCALAR"
		},
		{
			"bufferView":12,
			"componentType":5126,
			"count":107139,
			"max":[
				7.781026840209961,
				7.080562591552734,
				-18.748136520385742
			],
			"min":[
				6.510478973388672,
				5.690464019775391,
				-19.837873458862305
			],
			"type":"VEC3"
		},
		{
			"bufferView":13,
			"componentType":5126,
			"count":107139,
			"type":"VEC3"
		},
		{
			"bufferView":14,
			"componentType":5126,
			"count":107139,
			"type":"VEC2"
		},
		{
			"bufferView":15,
			"componentType":5125,
			"count":195072,
			"type":"SCALAR"
		}
	],
	"bufferViews":[
		{
			"buffer":0,
			"byteLength":4490856,
			"byteOffset":0,
			"target":34962
		},
		{
			"buffer":0,
			"byteLength":4490856,
			"byteOffset":4490856,
			"target":34962
		},
		{
			"buffer":0,
			"byteLength":2993904,
			"byteOffset":8981712,
			"target":34962
		},
		{
			"buffer":0,
			"byteLength":2276952,
			"byteOffset":11975616,
			"target":34963
		},
		{
			"buffer":0,
			"byteLength":1165932,
			"byteOffset":14252568,
			"target":34962
		},
		{
			"buffer":0,
			"byteLength":1165932,
			"byteOffset":15418500,
			"target":34962
		},
		{
			"buffer":0,
			"byteLength":777288,
			"byteOffset":16584432,
			"target":34962
		},
		{
			"buffer":0,
			"byteLength":698400,
			"byteOffset":17361720,
			"target":34963
		},
		{
			"buffer":0,
			"byteLength":1389120,
			"byteOffset":18060120,
			"target":34962
		},
		{
			"buffer":0,
			"byteLength":1389120,
			"byteOffset":19449240,
			"target":34962
		},
		{
			"buffer":0,
			"byteLength":926080,
			"byteOffset":20838360,
			"target":34962
		},
		{
			"buffer":0,
			"byteLength":780288,
			"byteOffset":21764440,
			"target":34963
		},
		{
			"buffer":0,
			"byteLength":1285668,
			"byteOffset":22544728,
			"target":34962
		},
		{
			"buffer":0,
			"byteLength":1285668,
			"byteOffset":23830396,
			"target":34962
		},
		{
			"buffer":0,
			"byteLength":857112,
			"byteOffset":25116064,
			"target":34962
		},
		{
			"buffer":0,
			"byteLength":780288,
			"byteOffset":25973176,
			"target":34963
		}
	],
	"samplers":[
		{
			"magFilter":9729,
			"minFilter":9987
		}
	],
	"buffers":[
		{
			"byteLength":26753464,
			"uri":"lewytex.bin"
		}
	]
}
