{
	"asset":{
		"generator":"Khronos glTF Blender I/O v4.0.44",
		"version":"2.0"
	},
	"extensionsUsed":[
		"KHR_materials_specular",
		"KHR_materials_ior"
	],
	"scene":0,
	"scenes":[
		{
			"name":"Scene",
			"nodes":[
				0
			]
		}
	],
	"nodes":[
		{
			"mesh":0,
			"name":"PD_neurons_mapsSkin_ZSphere9",
			"rotation":[
				0.9366760849952698,
				0.13132072985172272,
				0.03906794637441635,
				0.32228323817253113
			],
			"scale":[
				4.999999523162842,
				5,
				5
			]
		}
	],
	"materials":[
		{
			"doubleSided":true,
			"extensions":{
				"KHR_materials_specular":{
					"specularFactor":0
				},
				"KHR_materials_ior":{
					"ior":1.4500000476837158
				}
			},
			"name":"defaultMat.004",
			"pbrMetallicRoughness":{
				"baseColorTexture":{
					"index":0
				},
				"metallicFactor":0
			}
		}
	],
	"meshes":[
		{
			"name":"PD_neurons_mapsSkin_ZSphere9",
			"primitives":[
				{
					"attributes":{
						"POSITION":0,
						"NORMAL":1,
						"TEXCOORD_0":2
					},
					"indices":3,
					"material":0
				}
			]
		}
	],
	"textures":[
		{
			"sampler":0,
			"source":0
		}
	],
	"images":[
		{
			"mimeType":"image/png",
			"name":"PD neurons mapsSkin_ZSphere9.bmp",
			"uri":"PD%20neurons%20mapsSkin_ZSphere9_bmp.png"
		}
	],
	"accessors":[
		{
			"bufferView":0,
			"componentType":5126,
			"count":2023157,
			"max":[
				29.44076156616211,
				23.72948455810547,
				30.507144927978516
			],
			"min":[
				-10.346122741699219,
				-14.757027626037598,
				-30.982051849365234
			],
			"type":"VEC3"
		},
		{
			"bufferView":1,
			"componentType":5126,
			"count":2023157,
			"type":"VEC3"
		},
		{
			"bufferView":2,
			"componentType":5126,
			"count":2023157,
			"type":"VEC2"
		},
		{
			"bufferView":3,
			"componentType":5125,
			"count":3427776,
			"type":"SCALAR"
		}
	],
	"bufferViews":[
		{
			"buffer":0,
			"byteLength":24277884,
			"byteOffset":0,
			"target":34962
		},
		{
			"buffer":0,
			"byteLength":24277884,
			"byteOffset":24277884,
			"target":34962
		},
		{
			"buffer":0,
			"byteLength":16185256,
			"byteOffset":48555768,
			"target":34962
		},
		{
			"buffer":0,
			"byteLength":13711104,
			"byteOffset":64741024,
			"target":34963
		}
	],
	"samplers":[
		{
			"magFilter":9729,
			"minFilter":9987
		}
	],
	"buffers":[
		{
			"byteLength":78452128,
			"uri":"neurons.bin"
		}
	]
}
