{
	"asset":{
		"generator":"Khronos glTF Blender I/O v4.0.44",
		"version":"2.0"
	},
	"extensionsUsed":[
		"KHR_materials_specular",
		"KHR_materials_ior"
	],
	"scene":0,
	"scenes":[
		{
			"name":"Scene",
			"nodes":[
				0,
				1,
				2,
				3,
				4
			]
		}
	],
	"nodes":[
		{
			"mesh":0,
			"name":"Left_globus_pallidus",
			"rotation":[
				0.7071068286895752,
				0,
				0,
				0.7071068286895752
			]
		},
		{
			"mesh":1,
			"name":"Left_putamen1",
			"rotation":[
				0.7071068286895752,
				0,
				0,
				0.7071068286895752
			]
		},
		{
			"mesh":2,
			"name":"Right_thalamus1",
			"rotation":[
				0.7071068286895752,
				0,
				0,
				0.7071068286895752
			]
		},
		{
			"mesh":3,
			"name":"Caudate_nucleus1",
			"rotation":[
				0.7071068286895752,
				0,
				0,
				0.7071068286895752
			]
		},
		{
			"mesh":4,
			"name":"Right_thalamus",
			"rotation":[
				0.7071068286895752,
				0,
				0,
				0.7071068286895752
			]
		}
	],
	"materials":[
		{
			"doubleSided":true,
			"extensions":{
				"KHR_materials_specular":{
					"specularColorFactor":[
						2.0,
						2.0,
						2.0
					]
				},
				"KHR_materials_ior":{
					"ior":1.4500000476837158
				}
			},
			"name":"mat0.003",
			"pbrMetallicRoughness":{
				"baseColorTexture":{
					"index":0
				},
				"metallicFactor":0,
				"roughnessFactor":0.6837722063064575
			}
		},
		{
			"doubleSided":true,
			"extensions":{
				"KHR_materials_specular":{
					"specularColorFactor":[
						2.0,
						2.0,
						2.0
					]
				},
				"KHR_materials_ior":{
					"ior":1.4500000476837158
				}
			},
			"name":"mat0.010",
			"pbrMetallicRoughness":{
				"baseColorTexture":{
					"index":1
				},
				"metallicFactor":0,
				"roughnessFactor":0.6837722063064575
			}
		},
		{
			"doubleSided":true,
			"extensions":{
				"KHR_materials_specular":{
					"specularColorFactor":[
						2.0,
						2.0,
						2.0
					]
				},
				"KHR_materials_ior":{
					"ior":1.4500000476837158
				}
			},
			"name":"mat0.015",
			"pbrMetallicRoughness":{
				"baseColorTexture":{
					"index":2
				},
				"metallicFactor":0,
				"roughnessFactor":0.6837722063064575
			}
		},
		{
			"doubleSided":true,
			"extensions":{
				"KHR_materials_specular":{
					"specularColorFactor":[
						2.0,
						2.0,
						2.0
					]
				},
				"KHR_materials_ior":{
					"ior":1.4500000476837158
				}
			},
			"name":"mat0.018",
			"pbrMetallicRoughness":{
				"baseColorTexture":{
					"index":3
				},
				"metallicFactor":0,
				"roughnessFactor":0.6837722063064575
			}
		},
		{
			"doubleSided":true,
			"extensions":{
				"KHR_materials_specular":{
					"specularColorFactor":[
						2.0,
						2.0,
						2.0
					]
				},
				"KHR_materials_ior":{
					"ior":1.4500000476837158
				}
			},
			"name":"mat0.022",
			"pbrMetallicRoughness":{
				"baseColorTexture":{
					"index":4
				},
				"metallicFactor":0,
				"roughnessFactor":0.6837722063064575
			}
		}
	],
	"meshes":[
		{
			"name":"Left_globus_pallidus",
			"primitives":[
				{
					"attributes":{
						"POSITION":0,
						"NORMAL":1,
						"TEXCOORD_0":2
					},
					"indices":3,
					"material":0
				}
			]
		},
		{
			"name":"Left_putamen1",
			"primitives":[
				{
					"attributes":{
						"POSITION":4,
						"NORMAL":5,
						"TEXCOORD_0":6
					},
					"indices":7,
					"material":1
				}
			]
		},
		{
			"name":"Right_thalamus1",
			"primitives":[
				{
					"attributes":{
						"POSITION":8,
						"NORMAL":9,
						"TEXCOORD_0":10
					},
					"indices":11,
					"material":2
				}
			]
		},
		{
			"name":"Caudate_nucleus1",
			"primitives":[
				{
					"attributes":{
						"POSITION":12,
						"NORMAL":13,
						"TEXCOORD_0":14
					},
					"indices":15,
					"material":3
				}
			]
		},
		{
			"name":"Right_thalamus",
			"primitives":[
				{
					"attributes":{
						"POSITION":16,
						"NORMAL":17,
						"TEXCOORD_0":18
					},
					"indices":19,
					"material":4
				}
			]
		}
	],
	"textures":[
		{
			"sampler":0,
			"source":0
		},
		{
			"sampler":0,
			"source":1
		},
		{
			"sampler":0,
			"source":2
		},
		{
			"sampler":0,
			"source":3
		},
		{
			"sampler":0,
			"source":4
		}
	],
	"images":[
		{
			"mimeType":"image/jpeg",
			"name":"Left_globus_pallidusTex18",
			"uri":"Left_globus_pallidusTex18.jpg"
		},
		{
			"mimeType":"image/jpeg",
			"name":"Left_putamen1Tex19",
			"uri":"Left_putamen1Tex19.jpg"
		},
		{
			"mimeType":"image/jpeg",
			"name":"Right_thalamus1Tex30",
			"uri":"Right_thalamus1Tex30.jpg"
		},
		{
			"mimeType":"image/jpeg",
			"name":"Caudate_nucleus1Tex39",
			"uri":"Caudate_nucleus1Tex39.jpg"
		},
		{
			"mimeType":"image/jpeg",
			"name":"Right_thalamusTex32",
			"uri":"Right_thalamusTex32.jpg"
		}
	],
	"accessors":[
		{
			"bufferView":0,
			"componentType":5126,
			"count":69493,
			"max":[
				2.0311999320983887,
				42.560874938964844,
				-11.711599349975586
			],
			"min":[
				-9.439629554748535,
				22.492942810058594,
				-23.579511642456055
			],
			"type":"VEC3"
		},
		{
			"bufferView":1,
			"componentType":5126,
			"count":69493,
			"type":"VEC3"
		},
		{
			"bufferView":2,
			"componentType":5126,
			"count":69493,
			"type":"VEC2"
		},
		{
			"bufferView":3,
			"componentType":5125,
			"count":69618,
			"type":"SCALAR"
		},
		{
			"bufferView":4,
			"componentType":5126,
			"count":91868,
			"max":[
				-0.6263139843940735,
				48.64011764526367,
				-11.116049766540527
			],
			"min":[
				-13.16047191619873,
				19.273269653320312,
				-29.019750595092773
			],
			"type":"VEC3"
		},
		{
			"bufferView":5,
			"componentType":5126,
			"count":91868,
			"type":"VEC3"
		},
		{
			"bufferView":6,
			"componentType":5126,
			"count":91868,
			"type":"VEC2"
		},
		{
			"bufferView":7,
			"componentType":5125,
			"count":92010,
			"type":"SCALAR"
		},
		{
			"bufferView":8,
			"componentType":5126,
			"count":6300,
			"max":[
				11.833958625793457,
				19.681520462036133,
				-9.764918327331543
			],
			"min":[
				5.560037136077881,
				16.1767635345459,
				-11.653380393981934
			],
			"type":"VEC3"
		},
		{
			"bufferView":9,
			"componentType":5126,
			"count":6300,
			"type":"VEC3"
		},
		{
			"bufferView":10,
			"componentType":5126,
			"count":6300,
			"type":"VEC2"
		},
		{
			"bufferView":11,
			"componentType":5123,
			"count":6318,
			"type":"SCALAR"
		},
		{
			"bufferView":12,
			"componentType":5126,
			"count":20438,
			"max":[
				9.173688888549805,
				52.466121673583984,
				-7.6038432121276855
			],
			"min":[
				-12.596935272216797,
				8.875020980834961,
				-33.00383758544922
			],
			"type":"VEC3"
		},
		{
			"bufferView":13,
			"componentType":5126,
			"count":20438,
			"type":"VEC3"
		},
		{
			"bufferView":14,
			"componentType":5126,
			"count":20438,
			"type":"VEC2"
		},
		{
			"bufferView":15,
			"componentType":5123,
			"count":30234,
			"type":"SCALAR"
		},
		{
			"bufferView":16,
			"componentType":5126,
			"count":9884,
			"max":[
				10.522480010986328,
				34.9650764465332,
				-8.813634872436523
			],
			"min":[
				-5.583339214324951,
				9.872288703918457,
				-25.068544387817383
			],
			"type":"VEC3"
		},
		{
			"bufferView":17,
			"componentType":5126,
			"count":9884,
			"type":"VEC3"
		},
		{
			"bufferView":18,
			"componentType":5126,
			"count":9884,
			"type":"VEC2"
		},
		{
			"bufferView":19,
			"componentType":5123,
			"count":9894,
			"type":"SCALAR"
		}
	],
	"bufferViews":[
		{
			"buffer":0,
			"byteLength":833916,
			"byteOffset":0,
			"target":34962
		},
		{
			"buffer":0,
			"byteLength":833916,
			"byteOffset":833916,
			"target":34962
		},
		{
			"buffer":0,
			"byteLength":555944,
			"byteOffset":1667832,
			"target":34962
		},
		{
			"buffer":0,
			"byteLength":278472,
			"byteOffset":2223776,
			"target":34963
		},
		{
			"buffer":0,
			"byteLength":1102416,
			"byteOffset":2502248,
			"target":34962
		},
		{
			"buffer":0,
			"byteLength":1102416,
			"byteOffset":3604664,
			"target":34962
		},
		{
			"buffer":0,
			"byteLength":734944,
			"byteOffset":4707080,
			"target":34962
		},
		{
			"buffer":0,
			"byteLength":368040,
			"byteOffset":5442024,
			"target":34963
		},
		{
			"buffer":0,
			"byteLength":75600,
			"byteOffset":5810064,
			"target":34962
		},
		{
			"buffer":0,
			"byteLength":75600,
			"byteOffset":5885664,
			"target":34962
		},
		{
			"buffer":0,
			"byteLength":50400,
			"byteOffset":5961264,
			"target":34962
		},
		{
			"buffer":0,
			"byteLength":12636,
			"byteOffset":6011664,
			"target":34963
		},
		{
			"buffer":0,
			"byteLength":245256,
			"byteOffset":6024300,
			"target":34962
		},
		{
			"buffer":0,
			"byteLength":245256,
			"byteOffset":6269556,
			"target":34962
		},
		{
			"buffer":0,
			"byteLength":163504,
			"byteOffset":6514812,
			"target":34962
		},
		{
			"buffer":0,
			"byteLength":60468,
			"byteOffset":6678316,
			"target":34963
		},
		{
			"buffer":0,
			"byteLength":118608,
			"byteOffset":6738784,
			"target":34962
		},
		{
			"buffer":0,
			"byteLength":118608,
			"byteOffset":6857392,
			"target":34962
		},
		{
			"buffer":0,
			"byteLength":79072,
			"byteOffset":6976000,
			"target":34962
		},
		{
			"buffer":0,
			"byteLength":19788,
			"byteOffset":7055072,
			"target":34963
		}
	],
	"samplers":[
		{
			"magFilter":9729,
			"minFilter":9987
		}
	],
	"buffers":[
		{
			"byteLength":7074860,
			"uri":"basalganglia.bin"
		}
	]
}
