{
	"asset":{
		"generator":"Khronos glTF Blender I/O v4.0.44",
		"version":"2.0"
	},
	"extensionsUsed":[
		"KHR_materials_specular",
		"KHR_materials_ior"
	],
	"scene":0,
	"scenes":[
		{
			"name":"Scene",
			"nodes":[
				0
			]
		}
	],
	"nodes":[
		{
			"mesh":0,
			"name":"Midbrain",
			"rotation":[
				0.7071068286895752,
				0,
				0,
				0.7071068286895752
			]
		}
	],
	"materials":[
		{
			"doubleSided":true,
			"extensions":{
				"KHR_materials_specular":{
					"specularColorFactor":[
						2.0,
						2.0,
						2.0
					]
				},
				"KHR_materials_ior":{
					"ior":1.4500000476837158
				}
			},
			"name":"mat0.011",
			"pbrMetallicRoughness":{
				"baseColorTexture":{
					"index":0
				},
				"metallicFactor":0,
				"roughnessFactor":0.6837722063064575
			}
		}
	],
	"meshes":[
		{
			"name":"Midbrain",
			"primitives":[
				{
					"attributes":{
						"POSITION":0,
						"NORMAL":1,
						"TEXCOORD_0":2
					},
					"indices":3,
					"material":0
				}
			]
		}
	],
	"textures":[
		{
			"sampler":0,
			"source":0
		}
	],
	"images":[
		{
			"mimeType":"image/jpeg",
			"name":"MidbrainTex59",
			"uri":"MidbrainTex59.jpg"
		}
	],
	"accessors":[
		{
			"bufferView":0,
			"componentType":5126,
			"count":18637,
			"max":[
				12.015835762023926,
				30.261629104614258,
				5.567690849304199
			],
			"min":[
				1.5638200044631958,
				13.951972007751465,
				-11.402395248413086
			],
			"type":"VEC3"
		},
		{
			"bufferView":1,
			"componentType":5126,
			"count":18637,
			"type":"VEC3"
		},
		{
			"bufferView":2,
			"componentType":5126,
			"count":18637,
			"type":"VEC2"
		},
		{
			"bufferView":3,
			"componentType":5123,
			"count":26778,
			"type":"SCALAR"
		}
	],
	"bufferViews":[
		{
			"buffer":0,
			"byteLength":223644,
			"byteOffset":0,
			"target":34962
		},
		{
			"buffer":0,
			"byteLength":223644,
			"byteOffset":223644,
			"target":34962
		},
		{
			"buffer":0,
			"byteLength":149096,
			"byteOffset":447288,
			"target":34962
		},
		{
			"buffer":0,
			"byteLength":53556,
			"byteOffset":596384,
			"target":34963
		}
	],
	"samplers":[
		{
			"magFilter":9729,
			"minFilter":9987
		}
	],
	"buffers":[
		{
			"byteLength":649940,
			"uri":"midbrain.bin"
		}
	]
}
