{
	"asset":{
		"generator":"Khronos glTF Blender I/O v4.0.44",
		"version":"2.0"
	},
	"extensionsUsed":[
		"KHR_materials_specular",
		"KHR_materials_ior"
	],
	"scene":0,
	"scenes":[
		{
			"name":"Scene",
			"nodes":[
				0,
				1,
				2,
				3
			]
		}
	],
	"nodes":[
		{
			"mesh":0,
			"name":"a_synuclein_copy",
			"rotation":[
				0.7071068286895752,
				0,
				0,
				0.7071068286895752
			],
			"scale":[
				5,
				5,
				5
			]
		},
		{
			"mesh":1,
			"name":"Cube.004",
			"rotation":[
				0.7071068286895752,
				0,
				0,
				0.7071068286895752
			],
			"scale":[
				5,
				5,
				5
			]
		},
		{
			"mesh":2,
			"name":"Lewy_body_objPM3D_Sphere3D2",
			"rotation":[
				0.7071068286895752,
				0,
				0,
				0.7071068286895752
			],
			"scale":[
				5,
				5,
				5
			]
		},
		{
			"mesh":3,
			"name":"Nucleus_objPM3D_Sphere3D1",
			"rotation":[
				0.7071068286895752,
				0,
				0,
				0.7071068286895752
			],
			"scale":[
				5,
				5,
				5
			]
		}
	],
	"materials":[
		{
			"doubleSided":true,
			"extensions":{
				"KHR_materials_specular":{
					"specularFactor":0
				},
				"KHR_materials_ior":{
					"ior":1.4500000476837158
				}
			},
			"name":"defaultMat",
			"pbrMetallicRoughness":{
				"baseColorFactor":[
					0.800000011920929,
					0.800000011920929,
					0.800000011920929,
					1
				],
				"metallicFactor":0
			}
		},
		{
			"doubleSided":true,
			"name":"Material.001",
			"pbrMetallicRoughness":{
				"baseColorFactor":[
					0.10798300057649612,
					0.016750000417232513,
					0.23177100718021393,
					1
				],
				"metallicFactor":0,
				"roughnessFactor":0.5
			}
		},
		{
			"doubleSided":true,
			"extensions":{
				"KHR_materials_specular":{
					"specularFactor":0
				},
				"KHR_materials_ior":{
					"ior":1.4500000476837158
				}
			},
			"name":"defaultMat.001",
			"pbrMetallicRoughness":{
				"baseColorTexture":{
					"index":0
				},
				"metallicFactor":0
			}
		},
		{
			"doubleSided":true,
			"extensions":{
				"KHR_materials_specular":{
					"specularFactor":0
				},
				"KHR_materials_ior":{
					"ior":1.4500000476837158
				}
			},
			"name":"defaultMat.003",
			"pbrMetallicRoughness":{
				"metallicFactor":0
			}
		}
	],
	"meshes":[
		{
			"name":"a_synuclein_copy",
			"primitives":[
				{
					"attributes":{
						"POSITION":0,
						"NORMAL":1,
						"TEXCOORD_0":2
					},
					"indices":3,
					"material":0
				}
			]
		},
		{
			"name":"Cube.004",
			"primitives":[
				{
					"attributes":{
						"POSITION":4,
						"NORMAL":5,
						"TEXCOORD_0":6
					},
					"indices":7,
					"material":1
				}
			]
		},
		{
			"name":"Lewy_body_objPM3D_Sphere3D2",
			"primitives":[
				{
					"attributes":{
						"POSITION":8,
						"NORMAL":9,
						"TEXCOORD_0":10
					},
					"indices":11,
					"material":2
				}
			]
		},
		{
			"name":"Nucleus_objPM3D_Sphere3D1",
			"primitives":[
				{
					"attributes":{
						"POSITION":12,
						"NORMAL":13,
						"TEXCOORD_0":14
					},
					"indices":15,
					"material":3
				}
			]
		}
	],
	"textures":[
		{
			"sampler":0,
			"source":0
		}
	],
	"images":[
		{
			"mimeType":"image/png",
			"name":"Lewy body objPM3D_Sphere3D2",
			"uri":"Lewy%20body%20objPM3D_Sphere3D2.png"
		}
	],
	"accessors":[
		{
			"bufferView":0,
			"componentType":5126,
			"count":379492,
			"max":[
				29.23550033569336,
				-51.947811126708984,
				16.52211570739746
			],
			"min":[
				29.05352020263672,
				-52.08713912963867,
				16.1080265045166
			],
			"type":"VEC3"
		},
		{
			"bufferView":1,
			"componentType":5126,
			"count":379492,
			"type":"VEC3"
		},
		{
			"bufferView":2,
			"componentType":5126,
			"count":379492,
			"type":"VEC2"
		},
		{
			"bufferView":3,
			"componentType":5125,
			"count":569238,
			"type":"SCALAR"
		},
		{
			"bufferView":4,
			"componentType":5126,
			"count":115331,
			"max":[
				28.70146369934082,
				-52.045494079589844,
				16.693073272705078
			],
			"min":[
				28.475191116333008,
				-52.40555191040039,
				16.137802124023438
			],
			"type":"VEC3"
		},
		{
			"bufferView":5,
			"componentType":5126,
			"count":115331,
			"type":"VEC3"
		},
		{
			"bufferView":6,
			"componentType":5126,
			"count":115331,
			"type":"VEC2"
		},
		{
			"bufferView":7,
			"componentType":5125,
			"count":174600,
			"type":"SCALAR"
		},
		{
			"bufferView":8,
			"componentType":5126,
			"count":130048,
			"max":[
				27.961563110351562,
				-51.74081039428711,
				16.297229766845703
			],
			"min":[
				27.343189239501953,
				-52.420501708984375,
				15.670119285583496
			],
			"type":"VEC3"
		},
		{
			"bufferView":9,
			"componentType":5126,
			"count":130048,
			"type":"VEC3"
		},
		{
			"bufferView":10,
			"componentType":5126,
			"count":130048,
			"type":"VEC2"
		},
		{
			"bufferView":11,
			"componentType":5125,
			"count":195072,
			"type":"SCALAR"
		},
		{
			"bufferView":12,
			"componentType":5126,
			"count":130046,
			"max":[
				29.13669204711914,
				-50.907779693603516,
				16.374670028686523
			],
			"min":[
				27.86614418029785,
				-52.29787826538086,
				15.284933090209961
			],
			"type":"VEC3"
		},
		{
			"bufferView":13,
			"componentType":5126,
			"count":130046,
			"type":"VEC3"
		},
		{
			"bufferView":14,
			"componentType":5126,
			"count":130046,
			"type":"VEC2"
		},
		{
			"bufferView":15,
			"componentType":5125,
			"count":195072,
			"type":"SCALAR"
		}
	],
	"bufferViews":[
		{
			"buffer":0,
			"byteLength":4553904,
			"byteOffset":0,
			"target":34962
		},
		{
			"buffer":0,
			"byteLength":4553904,
			"byteOffset":4553904,
			"target":34962
		},
		{
			"buffer":0,
			"byteLength":3035936,
			"byteOffset":9107808,
			"target":34962
		},
		{
			"buffer":0,
			"byteLength":2276952,
			"byteOffset":12143744,
			"target":34963
		},
		{
			"buffer":0,
			"byteLength":1383972,
			"byteOffset":14420696,
			"target":34962
		},
		{
			"buffer":0,
			"byteLength":1383972,
			"byteOffset":15804668,
			"target":34962
		},
		{
			"buffer":0,
			"byteLength":922648,
			"byteOffset":17188640,
			"target":34962
		},
		{
			"buffer":0,
			"byteLength":698400,
			"byteOffset":18111288,
			"target":34963
		},
		{
			"buffer":0,
			"byteLength":1560576,
			"byteOffset":18809688,
			"target":34962
		},
		{
			"buffer":0,
			"byteLength":1560576,
			"byteOffset":20370264,
			"target":34962
		},
		{
			"buffer":0,
			"byteLength":1040384,
			"byteOffset":21930840,
			"target":34962
		},
		{
			"buffer":0,
			"byteLength":780288,
			"byteOffset":22971224,
			"target":34963
		},
		{
			"buffer":0,
			"byteLength":1560552,
			"byteOffset":23751512,
			"target":34962
		},
		{
			"buffer":0,
			"byteLength":1560552,
			"byteOffset":25312064,
			"target":34962
		},
		{
			"buffer":0,
			"byteLength":1040368,
			"byteOffset":26872616,
			"target":34962
		},
		{
			"buffer":0,
			"byteLength":780288,
			"byteOffset":27912984,
			"target":34963
		}
	],
	"samplers":[
		{
			"magFilter":9729,
			"minFilter":9987
		}
	],
	"buffers":[
		{
			"byteLength":28693272,
			"uri":"lewy.bin"
		}
	]
}
