{
	"asset":{
		"generator":"Khronos glTF Blender I/O v4.0.44",
		"version":"2.0"
	},
	"extensionsUsed":[
		"KHR_materials_specular",
		"KHR_materials_ior"
	],
	"scene":0,
	"scenes":[
		{
			"name":"Scene",
			"nodes":[
				0
			]
		}
	],
	"nodes":[
		{
			"mesh":0,
			"name":"PD_neurons_mapsSkin_ZSphere9",
			"rotation":[
				0.7071068286895752,
				0,
				0,
				0.7071068286895752
			],
			"scale":[
				5,
				5,
				5
			]
		}
	],
	"materials":[
		{
			"doubleSided":true,
			"extensions":{
				"KHR_materials_specular":{
					"specularFactor":0
				},
				"KHR_materials_ior":{
					"ior":1.4500000476837158
				}
			},
			"name":"defaultMat.004",
			"pbrMetallicRoughness":{
				"baseColorTexture":{
					"index":0
				},
				"metallicFactor":0
			}
		}
	],
	"meshes":[
		{
			"name":"PD_neurons_mapsSkin_ZSphere9",
			"primitives":[
				{
					"attributes":{
						"POSITION":0,
						"NORMAL":1,
						"TEXCOORD_0":2
					},
					"indices":3,
					"material":0
				}
			]
		}
	],
	"textures":[
		{
			"sampler":0,
			"source":0
		}
	],
	"images":[
		{
			"mimeType":"image/png",
			"name":"PD neurons mapsSkin_ZSphere9",
			"uri":"PD%20neurons%20mapsSkin_ZSphere9.png"
		}
	],
	"accessors":[
		{
			"bufferView":0,
			"componentType":5126,
			"count":2292775,
			"max":[
				50.79642105102539,
				-34.25885009765625,
				65.62996673583984
			],
			"min":[
				11.009536743164062,
				-72.745361328125,
				4.140769958496094
			],
			"type":"VEC3"
		},
		{
			"bufferView":1,
			"componentType":5126,
			"count":2292775,
			"type":"VEC3"
		},
		{
			"bufferView":2,
			"componentType":5126,
			"count":2292775,
			"type":"VEC2"
		},
		{
			"bufferView":3,
			"componentType":5125,
			"count":3427776,
			"type":"SCALAR"
		}
	],
	"bufferViews":[
		{
			"buffer":0,
			"byteLength":27513300,
			"byteOffset":0,
			"target":34962
		},
		{
			"buffer":0,
			"byteLength":27513300,
			"byteOffset":27513300,
			"target":34962
		},
		{
			"buffer":0,
			"byteLength":18342200,
			"byteOffset":55026600,
			"target":34962
		},
		{
			"buffer":0,
			"byteLength":13711104,
			"byteOffset":73368800,
			"target":34963
		}
	],
	"samplers":[
		{
			"magFilter":9729,
			"minFilter":9987
		}
	],
	"buffers":[
		{
			"byteLength":87079904,
			"uri":"neurons.bin"
		}
	]
}
